<?xml version="1.0" standalone="no"?>
<!DOCTYPE svg PUBLIC "-//W3C//DTD SVG 20010904//EN"
 "http://www.w3.org/TR/2001/REC-SVG-20010904/DTD/svg10.dtd">
<svg version="1.0" xmlns="http://www.w3.org/2000/svg"
 width="360.000000pt" height="360.000000pt" viewBox="0 0 360.000000 360.000000"
 preserveAspectRatio="xMidYMid meet">
<metadata>
Created by potrace 1.11, written by Peter Selinger 2001-2013
</metadata>
<g transform="translate(0.000000,360.000000) scale(0.100000,-0.100000)"
fill="#000000" stroke="none">
<path d="M1777 3366 c-2 -6 -3 -702 -3 -1546 l1 -1535 288 -1 287 -1 0 125 0
125 42 -59 c128 -180 285 -255 518 -249 231 7 384 86 498 255 71 106 140 306
158 460 3 30 8 57 9 60 12 20 20 216 20 460 -1 307 -5 380 -36 535 -5 28 -11
59 -13 70 -48 248 -168 442 -330 535 -130 74 -364 98 -511 52 -117 -36 -211
-104 -291 -209 -19 -24 -35 -43 -35 -41 -1 2 -2 221 -3 488 l-1 485 -297 1
c-213 1 -298 -2 -301 -10z m1017 -1170 c110 -46 172 -177 193 -406 10 -108 10
-592 1 -688 -31 -298 -133 -430 -321 -416 -217 16 -290 205 -291 754 0 161 9
356 18 405 2 11 7 40 11 64 20 121 82 234 147 271 67 38 173 45 242 16z"/>
<path d="M600 2633 c-314 -43 -499 -215 -554 -518 -11 -59 -6 -230 8 -280 36
-128 98 -214 214 -297 75 -54 129 -79 395 -184 133 -53 258 -105 277 -116 141
-85 206 -191 214 -350 12 -265 -163 -436 -448 -436 -300 0 -438 161 -445 516
l-1 52 -131 0 -132 0 6 -132 c3 -73 11 -158 17 -188 56 -269 219 -418 500
-458 59 -9 303 -8 360 2 255 41 436 198 508 441 32 106 36 316 7 410 -38 129
-105 226 -207 301 -77 56 -143 87 -388 179 -335 126 -385 155 -454 264 -37 58
-54 174 -39 268 33 216 183 320 443 308 230 -10 340 -145 343 -422 1 -71 -10
-64 112 -64 36 0 85 0 110 0 l45 1 -5 111 c-2 62 -7 119 -9 128 -3 9 -7 28
-10 42 -16 93 -73 202 -143 272 -46 46 -159 111 -213 123 -14 3 -36 7 -50 10
-14 3 -34 7 -44 11 -22 6 -247 11 -286 6z"/>
</g>
</svg>
