<?xml version="1.0" encoding="utf-8"?>
<!-- Generator: Adobe Illustrator 22.0.0, SVG Export Plug-In . SVG Version: 6.00 Build 0)  -->
<svg version="1.1" id="Layer_1" xmlns="http://www.w3.org/2000/svg" xmlns:xlink="http://www.w3.org/1999/xlink" x="0px" y="0px"
	 viewBox="0 0 26 36.6" style="enable-background:new 0 0 26 36.6;" xml:space="preserve">
<style type="text/css">
	.st0{fill:#404040;}
</style>
<g>
	<g>
		<path class="st0" d="M13,0C5.8,0,0,5.7,0,12.7c0,2.9,2.1,7.6,6.1,14c3,4.7,6,8.7,6,8.7l0.9,1.2l0.9-1.2c0,0,3-4,6-8.7
			c4.1-6.4,6.1-11.1,6.1-14C26,5.7,20.2,0,13,0z M13,17.5c-2.9,0-5.2-2.3-5.2-5.1c0-2.8,2.3-5.1,5.2-5.1s5.2,2.3,5.2,5.1
			S15.9,17.5,13,17.5z"/>
	</g>
</g>
</svg>
